{"title":"Canakkale.Yolun.Sonu.2013.DVDSCR.XviD-HDTURK","uid":8390304,"size":735417297,"categoryP":"video","categoryS":"movies","magnet":"?xt=urn:btih:9898d2e6b81822023523b10c3afb956878004154&amp;dn=Canakkale.Yolun.Sonu.2013.DVDSCR.XviD-HDTURK&amp;tr=udp%3A%2F%2Ftracker.openbittorrent.com%3A80&amp;tr=udp%3A%2F%2Fopen.demonii.com%3A1337&amp;tr=udp%3A%2F%2Ftracker.coppersurfer.tk%3A6969&amp;tr=udp%3A%2F%2Fexodus.desync.com%3A6969","seeders":1,"leechers":0,"uploader":"R0thschild","files":4,"time":1366408703,"description":"--------------------------------------------\n &lt;a href=&quot;\nhttp://www.imdb.com/title/tt2667550/&quot; rel=&quot;nofollow&quot; target=&quot;_NEW&quot;&gt;\nhttp://www.imdb.com/title/tt2667550/&lt;/a&gt;\n\nAction | Drama | History  -  15 March 2013 (Turkey)\n7,7 Your rating:    -/10   Ratings: 7,7/10 from 569 users   \n\nSUBTiTLES.......: Bulgarian\n\nLanguage : Turkish\n\nScreens: &lt;a href=&quot;\nhttp://imgsure.com/?p=300873&quot; rel=&quot;nofollow&quot; target=&quot;_NEW&quot;&gt;\nhttp://imgsure.com/?p=300873&lt;/a&gt; &lt;a href=&quot;\nhttp://imgsure.com/?p=103490&quot; rel=&quot;nofollow&quot; target=&quot;_NEW&quot;&gt;\nhttp://imgsure.com/?p=103490&lt;/a&gt;\n\nFormat                           : AVI\nFormat/Info                      : Audio Video Interleave\nFile size                        : 701 MiB\nDuration                         : 1h 40mn\nOverall bit rate                 : 971 Kbps\nMovie name                       : Canakkale Yolun Sonu (2013) DVDSCRip XviD-HDTURK\nWriting application              : VirtualDubMod 1.5.10.2 (build 2542/release)\nWriting library                  : VirtualDubMod build 2542/release\n\nVideo\nID                               : 0\nFormat                           : MPEG-4 Visual\nFormat profile                   : Advanced Simple@L5\nFormat settings, BVOP            : 4\nFormat settings, QPel            : No\nFormat settings, GMC             : No warppoints\nFormat settings, Matrix          : Default (MPEG)\nCodec ID                         : XVID\nCodec ID/Hint                    : XviD\nDuration                         : 1h 40mn\nBit rate                         : 834 Kbps\nWidth                            : 640 pixels\nHeight                           : 352 pixels\nDisplay aspect ratio             : 16:9\nFrame rate                       : 23.976 fps\nColor space                      : YUV\nChroma subsampling               : 4:2:0\nBit depth                        : 8 bits\nScan type                        : Progressive\nCompression mode                 : Lossy\nBits/(Pixel*Frame)               : 0.154\nStream size                      : 602 MiB (86%)\nWriting library                  : XviD 1.2.1 (UTC 2008-12-04)\n\nAudio\nID                               : 1\nFormat                           : MPEG Audio\nFormat version                   : Version 1\nFormat profile                   : Layer 3\nMode                             : Joint stereo\nMode extension                   : MS Stereo\nCodec ID                         : 55\nCodec ID/Hint                    : MP3\nDuration                         : 1h 40mn\nBit rate mode                    : Constant\nBit rate                         : 128 Kbps\nChannel(s)                       : 2 channels\nSampling rate                    : 48.0 KHz\nCompression mode                 : Lossy\nStream size                      : 92.4 MiB (13%)\nAlignment                        : Aligned on interleaves\nInterleave, duration             : 42 ms (1.00 video frame)\nInterleave, preload duration     : 504 ms\n\n--------------------------------------------\n\nMore at   &lt;a href=&quot;\nhttp://publichash.com/&quot; rel=&quot;nofollow&quot; target=&quot;_NEW&quot;&gt;\nhttp://publichash.com/&lt;/a&gt;\n\n--------------------------------------------\t","torrent":{"xt":"urn:btih:9898d2e6b81822023523b10c3afb956878004154","amp;dn":"Canakkale.Yolun.Sonu.2013.DVDSCR.XviD-HDTURK","amp;tr":["udp%3A%2F%2Ftracker.openbittorrent.com%3A80","udp%3A%2F%2Fopen.demonii.com%3A1337","udp%3A%2F%2Ftracker.coppersurfer.tk%3A6969","udp%3A%2F%2Fexodus.desync.com%3A6969"],"infoHash":"9898d2e6b81822023523b10c3afb956878004154","infoHashBuffer":{"type":"Buffer","data":[152,152,210,230,184,24,34,2,53,35,177,12,58,251,149,104,120,0,65,84]},"announce":[],"urlList":[]}}